Coordinates
version=1
nRows=32
nColumns=32
inDegrees=no

Units are S.I. units (second, meters, Newtons, ...)
If the header above contains a line with 'inDegrees', this indicates whether rotational values are in degrees (yes) or radians (no).

endheader
time	pelvis_tilt	pelvis_list	pelvis_rotation	pelvis_tx	pelvis_ty	pelvis_tz	hip_flexion_r	hip_adduction_r	hip_rotation_r	knee_angle_r	ankle_angle_r	subtalar_angle_r	mtp_angle_r	hip_flexion_l	hip_adduction_l	hip_rotation_l	knee_angle_l	ankle_angle_l	subtalar_angle_l	mtp_angle_l	lumbar_extension	lumbar_bending	lumbar_rotation	arm_flex_r	arm_add_r	arm_rot_r	elbow_flex_r	arm_flex_l	arm_add_l	arm_rot_l	elbow_flex_l
2.94	-0.168277	0.0489676	0.0229749	0.888808	0.960249	-0.281493	0.948827	-0.0978699	0.0297438	2.02689	-0.0842686	-0.30815	-0.0140804	0.173044	-0.0163339	-0.269507	0.684226	0.528456	0.271612	-0.058445	-0.0790227	-0.0963744	-0.222371	-0.717329	-0.225707	-0.177741	1.58282	-0.495827	-0.314051	-0.220243	2.02694
2.945	-0.166986	0.0364864	0.0160629	0.890122	0.963488	-0.281007	0.964759	-0.0829877	0.0167595	1.99	-0.0831385	-0.322715	-0.0141034	0.131116	-0.0298795	-0.281322	0.653351	0.498849	0.285378	-0.0584236	-0.0747964	-0.0798988	-0.22471	-0.733904	-0.230592	-0.181194	1.58985	-0.490168	-0.303787	-0.219887	2.03673
2.95	-0.166402	0.0244016	0.0095202	0.891542	0.966906	-0.280529	0.978801	-0.0692093	0.00295393	1.95038	-0.0827381	-0.33893	-0.0141264	0.0900005	-0.0426342	-0.295836	0.621392	0.462918	0.300102	-0.0584021	-0.0697729	-0.0638776	-0.227127	-0.751164	-0.23524	-0.185058	1.59871	-0.485587	-0.293857	-0.219128	2.04758
2.955	-0.166595	0.0128842	0.0033582	0.893045	0.970457	-0.280055	0.991147	-0.0566402	-0.0114204	1.90826	-0.0830225	-0.356501	-0.0141493	0.0500258	-0.054457	-0.313335	0.588653	0.420581	0.316047	-0.0583807	-0.0639348	-0.0484946	-0.229691	-0.768943	-0.239526	-0.189297	1.60905	-0.482004	-0.28439	-0.217916	2.05931
2.96	-0.167579	0.00212062	-0.00244036	0.894611	0.974096	-0.279586	1.00194	-0.0453557	-0.0260782	1.86381	-0.0839266	-0.374944	-0.0141724	0.011453	-0.0651616	-0.333932	0.55539	0.371755	0.333249	-0.0583593	-0.0573055	-0.0339399	-0.232397	-0.787077	-0.243321	-0.193898	1.62049	-0.479315	-0.275507	-0.216173	2.07173
2.965	-0.169305	-0.00771115	-0.00791155	0.896226	0.977782	-0.279131	1.01124	-0.0353843	-0.0407247	1.81717	-0.0853571	-0.393631	-0.0141954	-0.0255347	-0.0745447	-0.357526	0.52183	0.316438	0.351485	-0.0583378	-0.0499595	-0.0203913	-0.23518	-0.805405	-0.246503	-0.198853	1.63267	-0.477391	-0.267321	-0.213791	2.08464
2.97	-0.171663	-0.0164661	-0.0131035	0.897876	0.981477	-0.278704	1.01907	-0.0266872	-0.0550807	1.76845	-0.0871816	-0.411842	-0.0142184	-0.0608246	-0.0824293	-0.383781	0.488195	0.254833	0.370284	-0.0583164	-0.0420249	-0.00799223	-0.237939	-0.823759	-0.248969	-0.204154	1.64522	-0.4761	-0.259925	-0.210663	2.09784
2.975	-0.174499	-0.0240666	-0.0180708	0.899553	0.985151	-0.278317	1.02538	-0.0191445	-0.0689083	1.71772	-0.0892132	-0.428825	-0.0142414	-0.0943603	-0.0887118	-0.412129	0.454752	0.187471	0.388972	-0.0582949	-0.0336793	0.00316918	-0.240555	-0.841963	-0.250652	-0.209776	1.65783	-0.47532	-0.253389	-0.20671	2.11119
2.98	-0.177627	-0.0305197	-0.0228666	0.901249	0.988775	-0.277965	1.03008	-0.0125603	-0.0820324	1.66503	-0.0911996	-0.44383	-0.0142645	-0.126123	-0.0933981	-0.441777	0.421847	0.115311	0.406716	-0.0582734	-0.0251357	0.0130749	-0.242917	-0.85984	-0.25152	-0.215672	1.67023	-0.474948	-0.247763	-0.201893	2.12455
2.985	-0.180855	-0.0359065	-0.0275276	0.902951	0.992324	-0.277636	1.03305	-0.00669435	-0.0943497	1.61043	-0.0928278	-0.456133	-0.0142875	-0.156114	-0.0966084	-0.471717	0.389933	0.0397651	0.42257	-0.0582519	-0.0166226	0.0217794	-0.244932	-0.877224	-0.251567	-0.22179	1.68222	-0.474897	-0.243079	-0.196216	2.13787
2.99	-0.184004	-0.0403559	-0.0320612	0.904646	0.995768	-0.277306	1.0342	-0.00131028	-0.105816	1.55396	-0.0937451	-0.465044	-0.0143106	-0.184327	-0.0985461	-0.500735	0.359567	-0.0373597	0.435499	-0.0582305	-0.00835813	0.0293833	-0.246548	-0.893971	-0.250812	-0.228068	1.69368	-0.475097	-0.239349	-0.18973	2.1511
2.995	-0.186932	-0.0440087	-0.0364364	0.906316	0.999073	-0.276953	1.03344	0.00377411	-0.116421	1.49568	-0.0935961	-0.469923	-0.0143337	-0.210724	-0.0994457	-0.527449	0.331406	-0.113993	0.444426	-0.0582089	-0.000522301	0.0359874	-0.247767	-0.909955	-0.249302	-0.23444	1.70453	-0.4755	-0.236575	-0.182532	2.16426
3	-0.189546	-0.0469543	-0.0405841	0.907941	1.00221	-0.276571	1.03074	0.00865416	-0.126166	1.43566	-0.0920756	-0.470208	-0.0143568	-0.235214	-0.0995342	-0.550382	0.306186	-0.187984	0.448317	-0.0581874	0.00676476	0.0416646	-0.248651	-0.925066	-0.247102	-0.240823	1.71476	-0.476086	-0.234748	-0.174758	2.17737
3.005	-0.191804	-0.0492185	-0.0444092	0.909504	1.00514	-0.276169	1.02614	0.0133244	-0.135055	1.37398	-0.0889974	-0.465464	-0.0143799	-0.257639	-0.0989994	-0.56809	0.284696	-0.257293	0.446323	-0.0581659	0.0134451	0.0464322	-0.249313	-0.939201	-0.244297	-0.247123	1.72438	-0.47686	-0.233848	-0.166564	2.19047
3.01	-0.193711	-0.0507592	-0.0478082	0.910988	1.00785	-0.275771	1.0197	0.0176899	-0.143103	1.31072	-0.0843566	-0.455431	-0.014403	-0.277798	-0.0979742	-0.579311	0.267744	-0.320155	0.437968	-0.0581444	0.0195098	0.0502457	-0.249898	-0.952259	-0.240984	-0.253229	1.73341	-0.477846	-0.233846	-0.158107	2.20357
3.015	-0.1953	-0.0514777	-0.0506867	0.912375	1.01034	-0.275409	1.01151	0.0215956	-0.150352	1.24597	-0.0783634	-0.440045	-0.0144261	-0.295479	-0.0965298	-0.583107	0.256099	-0.375173	0.423299	-0.0581228	0.0249757	0.0530106	-0.250549	-0.964133	-0.237263	-0.259025	1.74186	-0.479082	-0.234699	-0.149546	2.21667
3.02	-0.196603	-0.0512523	-0.0529796	0.913662	1.01259	-0.275104	1.00165	0.0248595	-0.156893	1.17983	-0.0714352	-0.419458	-0.0144492	-0.31049	-0.0946727	-0.578965	0.250419	-0.421361	0.402959	-0.0581012	0.0298709	0.0546052	-0.251388	-0.974707	-0.233237	-0.264394	1.74975	-0.480603	-0.236342	-0.141036	2.22972
3.025	-0.197646	-0.0499636	-0.0546609	0.914848	1.01461	-0.27487	0.990245	0.0273075	-0.16289	1.11247	-0.0641438	-0.394037	-0.0144723	-0.322698	-0.0923502	-0.56685	0.251195	-0.458142	0.378132	-0.0580797	0.0342148	0.0549114	-0.252493	-0.983871	-0.229001	-0.269233	1.75708	-0.482443	-0.238686	-0.132728	2.24266
3.03	-0.198448	-0.0475181	-0.0557505	0.915933	1.01639	-0.274718	0.977404	0.0288003	-0.168593	1.04412	-0.0571245	-0.364353	-0.0144955	-0.332049	-0.0894629	-0.547208	0.258694	-0.485338	0.350392	-0.0580581	0.0380117	0.0538425	-0.253888	-0.991524	-0.224638	-0.273462	1.76384	-0.484622	-0.241616	-0.124773	2.25539
3.035	-0.199007	-0.043866	-0.0563165	0.916919	1.01792	-0.274645	0.963278	0.0292562	-0.174319	0.975199	-0.0509696	-0.331131	-0.0145186	-0.338581	-0.0858842	-0.520939	0.272941	-0.50315	0.321504	-0.0580365	0.0412416	0.0513639	-0.255531	-0.997588	-0.220216	-0.277031	1.77001	-0.487143	-0.244998	-0.117306	2.26776
3.04	-0.199296	-0.0390163	-0.0564737	0.917808	1.0192	-0.274645	0.94804	0.0286695	-0.180423	0.906233	-0.0461156	-0.29517	-0.0145418	-0.342422	-0.0814925	-0.489334	0.29373	-0.512137	0.293234	-0.058015	0.0438519	0.0475083	-0.257317	-1.00201	-0.215783	-0.279921	1.77555	-0.489995	-0.248689	-0.110437	2.27963
3.045	-0.199266	-0.0330497	-0.0563749	0.918602	1.02024	-0.274701	0.931886	0.0271217	-0.187247	0.837914	-0.0427501	-0.257235	-0.014565	-0.343768	-0.0762098	-0.45399	0.320668	-0.513192	0.267175	-0.0579934	0.0457587	0.0423876	-0.259087	-1.00474	-0.211367	-0.282144	1.78043	-0.493153	-0.252537	-0.104237	2.29084
3.05	-0.198858	-0.0261245	-0.0561954	0.919303	1.02104	-0.274792	0.915029	0.0247812	-0.195076	0.771037	-0.0407862	-0.217988	-0.0145881	-0.342852	-0.0700338	-0.416651	0.353238	-0.507544	0.244561	-0.0579718	0.0468634	0.0361984	-0.260643	-1.0058	-0.206988	-0.283738	1.78461	-0.496579	-0.25639	-0.0987283	2.3012
3.055	-0.19802	-0.0184692	-0.0561112	0.919913	1.0216	-0.274901	0.897691	0.0218847	-0.204091	0.706455	-0.0399207	-0.177972	-0.0146113	-0.339909	-0.0630546	-0.379032	0.390857	-0.496715	0.226115	-0.0579502	0.0470786	0.0292138	-0.261782	-1.00519	-0.202658	-0.284761	1.78809	-0.500229	-0.260098	-0.0938872	2.31056
3.06	-0.196717	-0.0103641	-0.056275	0.920434	1.02195	-0.275012	0.880096	0.0187061	-0.214343	0.645013	-0.0397533	-0.137653	-0.0146345	-0.335148	-0.0554567	-0.342663	0.432939	-0.482397	0.212028	-0.0579286	0.046349	0.0217611	-0.262323	-1.00299	-0.198394	-0.285288	1.79088	-0.504056	-0.263516	-0.089656	2.31876
3.065	-0.19494	-0.00211583	-0.0567974	0.920871	1.02209	-0.275113	0.862461	0.0155225	-0.225738	0.587498	-0.0399265	-0.0974936	-0.0146577	-0.328737	-0.0475079	-0.308781	0.478933	-0.466272	0.202039	-0.057907	0.0446643	0.0141938	-0.262132	-0.99926	-0.194222	-0.285399	1.79299	-0.508007	-0.266515	-0.0859641	2.32567
3.07	-0.192717	0.00596977	-0.0577333	0.921227	1.02203	-0.2752	0.844992	0.0125799	-0.238053	0.534583	-0.0402369	-0.0580235	-0.0146809	-0.32079	-0.0395346	-0.278277	0.528355	-0.449837	0.195553	-0.0578854	0.0420678	0.00686043	-0.261138	-0.994117	-0.190175	-0.285172	1.7945	-0.512037	-0.268986	-0.0827396	2.33116
3.075	-0.19011	0.0136139	-0.0590761	0.921506	1.02177	-0.275273	0.82789	0.0100642	-0.250967	0.486807	-0.0406863	-0.0199007	-0.0147042	-0.311367	-0.0318843	-0.251662	0.580784	-0.434279	0.191746	-0.0578637	0.0386609	7.57994e-05	-0.259341	-0.987668	-0.186296	-0.284677	1.79547	-0.516107	-0.270855	-0.0799117	2.33515
3.08	-0.187221	0.020587	-0.060759	0.921714	1.02131	-0.275337	0.811356	0.00807859	-0.264121	0.44456	-0.0414585	0.0160873	-0.0147274	-0.300474	-0.0248886	-0.22909	0.635853	-0.420408	0.189671	-0.0578421	0.0346009	-0.0059036	-0.256805	-0.980042	-0.182635	-0.283972	1.79601	-0.520196	-0.272081	-0.077414	2.33758
3.085	-0.184175	0.0267223	-0.062665	0.921854	1.02065	-0.2754	0.795581	0.00663171	-0.277183	0.408099	-0.0428336	0.04909	-0.0147507	-0.288092	-0.0188348	-0.210425	0.693229	-0.408641	0.188364	-0.0578205	0.0300842	-0.0108935	-0.25365	-0.971367	-0.179243	-0.283101	1.79622	-0.524304	-0.272655	-0.0751918	2.3384
3.09	-0.181103	0.0319193	-0.0646453	0.921934	1.01978	-0.275471	0.780733	0.00563961	-0.289896	0.377564	-0.0450788	0.0783144	-0.0147739	-0.274206	-0.0139495	-0.19532	0.75259	-0.399001	0.18694	-0.0577988	0.0253156	-0.0147845	-0.250033	-0.961778	-0.176172	-0.282088	1.79621	-0.528447	-0.272596	-0.0732076	2.33762
3.095	-0.178113	0.0361378	-0.0665395	0.92196	1.0187	-0.275564	0.766936	0.00494371	-0.302105	0.352994	-0.0483595	0.103141	-0.0147972	-0.258836	-0.0103937	-0.183315	0.813617	-0.391179	0.184672	-0.0577772	0.0204768	-0.0175338	-0.246119	-0.951398	-0.173475	-0.280949	1.79611	-0.532648	-0.271941	-0.0714404	2.33529
